Title: Monsieur Lazhar

Country: Canada/2011

Director: Philippe Falardeau

Writer: Philippe Falardeau (screenplay)

Stars: Mohamed Fellag, Sophie Nélisse and Émilien Néron

Indicate Academy Award Foreign Language

Imdb: http://www.imdb.com/title/tt2011971/

Rip Specs:

General
Complete name                    : Monsieur.Lazhar.2011.BRRip.AC3.HORiZON-ArtSubs.avi
Format                           : AVI
Format/Info                      : Audio Video Interleave
File size                        : 1.46 GiB
Duration                         : 1h 34mn
Overall bit rate                 : 2 209 Kbps
Writing application              : FairUse Wizard - http://fairusewizard.com
Writing library                  : The best and REALLY easy backup tool

Video
ID                               : 0
Format                           : MPEG-4 Visual
Format profile                   : Advanced Simple@L5
Format settings, BVOP            : 1
Format settings, QPel            : No
Format settings, GMC             : No warppoints
Format settings, Matrix          : Default (MPEG)
Muxing mode                      : Packed bitstream
Codec ID                         : XVID
Codec ID/Hint                    : XviD
Duration                         : 1h 34mn
Bit rate                         : 1 752 Kbps
Width                            : 688 pixels
Height                           : 288 pixels
Display aspect ratio             : 2.40:1
Frame rate                       : 23.976 fps
Color space                      : YUV
Chroma subsampling               : 4:2:0
Bit depth                        : 8 bits
Scan type                        : Progressive
Compression mode                 : Lossy
Bits/(Pixel*Frame)               : 0.369
Stream size                      : 1.16 GiB (79%)
Writing library                  : XviD 1.2.0.dev47 (UTC 2006-11-01)

Audio
ID                               : 1
Format                           : AC-3
Format/Info                      : Audio Coding 3
Mode extension                   : CM (complete main)
Codec ID                         : 2000
Duration                         : 1h 34mn
Bit rate mode                    : Constant
Bit rate                         : 448 Kbps
Channel(s)                       : 6 channels
Channel positions                : Front: L C R, Side: L R, LFE
Sampling rate                    : 48.0 KHz
Bit depth                        : 16 bits
Compression mode                 : Lossy
Stream size                      : 304 MiB (20%)
Alignment                        : Split accross interleaves
Interleave, duration             : 42 ms (1.00 video frame)
Interleave, preload duration     : 500 ms
